<mxfile host="app.diagrams.net" modified="2023-12-13T11:23:37.789Z" agent="Mozilla/5.0 (Windows NT 10.0; Win64; x64) AppleWebKit/537.36 (KHTML, like Gecko) Chrome/120.0.0.0 Safari/537.36" version="22.1.8" etag="fWTLLmbC1CBniEneG7ZJ" type="github">
  <diagram name="Page-1" id="tqiK_s3qbTi8lH6CkK_n">
    <mxGraphModel>
      <root>
        <mxCell id="0" />
        <mxCell id="1" parent="0" />
      </root>
    </mxGraphModel>
  </diagram>
</mxfile>
